<?xml version="1.0" encoding="UTF-8"?>
<svg id="Laag_2" data-name="Laag 2" xmlns="http://www.w3.org/2000/svg" viewBox="0 0 192.5 246.5">
  <defs>
    <style>
      .cls-1 {
        fill: #508c92;
      }

      .cls-1, .cls-2, .cls-3, .cls-4 {
        stroke-width: 0px;
      }

      .cls-2 {
        fill: #f5a425;
      }

      .cls-3 {
        fill: #575958;
      }

      .cls-4 {
        fill: #357687;
      }
    </style>
  </defs>
  <g id="Laag_1-2" data-name="Laag 1">
    <g>
      <path class="cls-2" d="M121.5,77c0,11.05-8.95,20-20,20-.33,0-.67-.01-1-.03-4.57-.22-8.74-1.98-12-4.78v13.08c0,6.78-5.31,12.33-12,12.7-.02-13.78-11.22-24.97-25-24.97s-25,11.21-25,25H8.5V38h33.27c-6.67-3.24-11.27-10.08-11.27-18C30.5,8.95,39.45,0,50.5,0s20,8.95,20,20c0,7.92-4.6,14.76-11.27,18h29.27v23.81c3.26-2.8,7.43-4.56,12-4.78.33-.02.67-.03,1-.03,11.05,0,20,8.95,20,20Z"/>
      <path class="cls-3" d="M172.74,66.99c4.94,8.53,7.76,18.43,7.76,28.99v22.02h-22.3c2.09,3.16,3.3,6.94,3.3,11,0,11.05-8.95,20-20,20s-20-8.95-20-20c0-4.06,1.21-7.84,3.3-11h-11.57c-7.03,0-12.73-5.7-12.73-12.73v-3.29c.33.01.67.02,1,.02,13.79,0,25-11.21,25-25s-11.21-25-25-25c-.33,0-.67.01-1,.02v-14.02h22.02c10.98,0,21.25,3.05,30,8.35.33-10.75,9.15-19.35,19.98-19.35s20,8.95,20,20-8.82,19.87-19.76,19.99Z"/>
      <path class="cls-1" d="M71,169.5c0-11.05,8.95-20,20-20,.33,0,.67.01,1,.03,4.57.22,8.74,1.98,12,4.78v-13.08c0-6.78,5.31-12.33,12-12.7.02,13.78,11.22,24.97,25,24.97s25-11.21,25-25h18v80h-33.27c6.67,3.24,11.27,10.08,11.27,18,0,11.05-8.95,20-20,20s-20-8.95-20-20c0-7.92,4.6-14.76,11.27-18h-29.27v-23.81c-3.26,2.8-7.43,4.56-12,4.78-.33.02-.67.03-1,.03-11.05,0-20-8.95-20-20Z"/>
      <path class="cls-4" d="M19.76,179.51c-4.94-8.53-7.76-18.43-7.76-28.99v-22.02h22.3c-2.09-3.16-3.3-6.94-3.3-11,0-11.05,8.95-20,20-20s20,8.95,20,20c0,4.06-1.21,7.84-3.3,11h11.57c7.03,0,12.73,5.7,12.73,12.73v3.29c-.33-.01-.67-.02-1-.02-13.79,0-25,11.21-25,25s11.21,25,25,25c.33,0,.67-.01,1-.02v14.02h-22.02c-10.98,0-21.25-3.05-30-8.35-.33,10.75-9.15,19.35-19.98,19.35S0,210.55,0,199.5s8.82-19.87,19.76-19.99Z"/>
    </g>
  </g>
</svg>